<svg xmlns="http://www.w3.org/2000/svg" viewBox="0 0 101.23 180.41"><defs><style>.cls-1{fill:none;stroke:#000;stroke-miterlimit:10;}</style></defs><g id="Capa_2" data-name="Capa 2"><g id="Capa_1-2" data-name="Capa 1"><path d="M89.56,111.08c-1,10.8-1.76,13.74-5.29,22-8.27,19.29-16.83,30-25.12,37.44-6.28,5.63-13.53,7.47-15.94,9.68-1.37,1.26-3.31-2.39,5.37-7.88,15.49-9.8,10.68-20.88,9.91-21.72-3.93-4.29-12-5.61-22.64-13.28-8.06-5.82-15.24-14.8-17-30.52-1.17-10.3,2.68-21.29,8.74-30.12,6.49-9.43,15.5-16.39,23.65-17.4,10.43-1.3,20.56,5,28,14.13C88.2,84.52,90.64,99.34,89.56,111.08Z"/><path d="M84.5,23.71c9.36,15.5-14.91,32.65-33.3,32.65S6.67,37.94,17.9,23.71C28,10.94,32.63,6.68,51,6.68S75.5,8.81,84.5,23.71Z"/><path d="M30.48.7l-7,16.73a.65.65,0,0,0,.76.9c8.39-2.54,16.24-4.95,24-9.23l1.66-1,0,0L31.34.33A.67.67,0,0,0,30.48.7Z"/><path d="M69.75.06,53.24,7.55a.64.64,0,0,0-.05,1.17c7.87,3.86,15.26,7.44,23.84,9.56l1.88.42h0L70.63.37A.66.66,0,0,0,69.75.06Z"/><line class="cls-1" x1="0.16" y1="50.52" x2="101.06" y2="15.68"/><line class="cls-1" x1="0.38" y1="15" x2="99.74" y2="51.72"/><line class="cls-1" x1="2.42" y1="32.72" x2="100.7" y2="31.28"/></g></g></svg>