<svg xmlns="http://www.w3.org/2000/svg" viewBox="0 0 330.35 93.74"><g id="Capa_2" data-name="Capa 2"><g id="Capa_1-2" data-name="Capa 1"><path fill="#013D5A" d="M38.64,57.72c-.51,5.61-.91,7.14-2.74,11.41-4.3,10-8.75,15.6-13.06,19.45-3.26,2.93-7,3.88-8.28,5-.71.65-1.72-1.24,2.79-4.09,8-5.1,5.55-10.85,5.15-11.29-2.05-2.23-6.25-2.91-11.77-6.9-4.18-3-7.92-7.69-8.84-15.86-.61-5.35,1.39-11.06,4.54-15.65,3.37-4.9,8.06-8.51,12.29-9,5.42-.67,10.68,2.59,14.53,7.34C37.93,43.92,39.2,51.62,38.64,57.72Z"/><path fill="#013D5A" d="M36,12.32c4.87,8.05-7.74,17-17.3,17s-23.14-9.56-17.3-17C6.65,5.68,9.06,3.47,18.62,3.47S31.34,4.58,36,12.32Z"/><path fill="#013D5A" d="M7.94.37,4.31,9.06a.33.33,0,0,0,.4.46A61.61,61.61,0,0,0,17.16,4.73L18,4.22v0L8.39.17A.35.35,0,0,0,7.94.37Z"/><path fill="#013D5A" d="M28.35,0l-8.58,3.9a.33.33,0,0,0,0,.6,60.66,60.66,0,0,0,12.39,5l1,.22h0L28.81.19A.34.34,0,0,0,28.35,0Z"/><path fill="#013D5A" d="M70.27,34.86C70.27,29.09,75.51,24,85.75,24c9.77,0,16.6,3.77,16.6,8.77a4.68,4.68,0,0,1-4.77,4.82c-7.42,0-6.47-10.23-13.83-10.23a3.63,3.63,0,0,0-3.53,3.82c0,7.94,23.24,13.06,23.24,23,0,5.77-5.23,10.89-15.47,10.89-9.48,0-17.13-4.06-17.13-8.95a4.58,4.58,0,0,1,4.77-4.65c7.41,0,6.18,10.24,14.06,10.24A3.52,3.52,0,0,0,93.17,58C93.17,49.69,70.27,45.33,70.27,34.86Z"/><path fill="#013D5A" d="M106.11,37.15c0-1.82-2.06-2.53-2.06-3.65,0-1.7,7.59-4.06,9-4.06s1.94.65,1.94,2.47v6.65h2.48V41H115V59c0,2.24,2.48,2,2.48,3.59,0,1.42-2.59,2.48-5.71,2.48-3.71,0-5.65-2-5.65-6.07V41h-2.06V38.56h2.06Z"/><path fill="#013D5A" d="M118,51c0-6.12,4.65-12.48,11.71-12.48,6.48,0,12.72,5.65,12.72,13.83,0,6.71-4.89,12.66-11.83,12.66C124.53,65.05,118,59.87,118,51Zm9.13-5.41c0,8.41,2.82,16.83,4.76,16.83.94,0,1.41-1.71,1.41-4.48,0-8.29-2.64-16.83-4.64-16.83C127.7,41.15,127.12,43.68,127.12,45.63Z"/><path fill="#013D5A" d="M145.3,59V46.27c0-1.88-2-2.53-2-3.7,0-1.65,7.53-4,8.94-4s1.94.59,1.94,2.48V49.1c.53-1.71,3.53-10.54,10.3-10.54a4.45,4.45,0,0,1,4.59,4.59,4.17,4.17,0,0,1-4.41,4.3c-2.36,0-2.47-1-4.06-1-3.59,0-5.95,7.41-6.42,8.89V59c0,1.89,2.06,3.54,2.06,4.77,0,1-.53,1.3-2.06,1.3H145.3c-1.47,0-2-.3-2-1.3C143.3,62.52,145.3,60.87,145.3,59Z"/><path fill="#013D5A" d="M173.3,44.63c-.7-1.53-2.64-3.54-2.64-4.71s.59-1.36,2.06-1.36h9.53c1.47,0,2,.3,2,1.36s-2.18,2.53-2.18,4a1.56,1.56,0,0,0,.18.71l5,10.76,4.89-10.76a.63.63,0,0,0,.05-.3c0-1.18-2.06-3.35-2.06-4.41s.53-1.36,2-1.36H196c1.47,0,2.06.3,2.06,1.36s-1.94,3.18-2.65,4.71c0,0-7,14.18-8.3,18.77,0,0-3.94,13.06-11.41,13.06a4.44,4.44,0,0,1-4.59-4.59,4.16,4.16,0,0,1,4.41-4.29c2.36,0,2.47,1,4.06,1S182.54,67,183.72,65a2.63,2.63,0,0,1-2.12-1.65C180.37,58.63,173.3,44.63,173.3,44.63Z"/><path fill="#013D5A" d="M246.62,64.55A21,21,0,0,1,232,70.73c-9.77,0-20-7.47-20-21.12,0-10.83,7.18-19.95,18.48-19.95,9.65,0,16,6.77,16,12.3a4.69,4.69,0,0,1-4.95,4.82c-2.64,0-5.29-1.7-5.29-4.88,0-5.36-2.83-8.89-6-8.89-5,0-7.94,7.83-7.94,16.13,0,9.24,3.65,19,12.06,19,2.24,0,2.53-1.23,2.59-1.76V56.85c0-1.53-2.06-2.89-2.06-3.89s.59-1.06,2.06-1.06h9.65c1.47,0,2,.18,2,1.06s-2,2.36-2,3.89Z"/><path fill="#013D5A" d="M251.21,64.67V36.78c0-1.83-2.06-2.53-2.06-3.65,0-1.71,7.59-4,9-4s2,.59,2,2.41V64.67c0,1.89,2.06,3.53,2.06,4.77,0,1-.59,1.29-2.06,1.29h-8.89c-1.47,0-2.06-.29-2.06-1.29C249.15,68.2,251.21,66.56,251.21,64.67Z"/><path fill="#013D5A" d="M262.74,56.73c0-6.12,4.65-12.48,11.71-12.48,6.48,0,12.71,5.65,12.71,13.83,0,6.71-4.88,12.65-11.83,12.65C269.27,70.73,262.74,65.56,262.74,56.73Zm9.12-5.42c0,8.42,2.83,16.83,4.77,16.83.94,0,1.41-1.7,1.41-4.47,0-8.3-2.65-16.83-4.65-16.83C272.45,46.84,271.86,49.37,271.86,51.31Z"/><path fill="#013D5A" d="M289.34,50.31c-.71-1.53-2.65-3.53-2.65-4.7s.53-1.36,2-1.36h9.53c1.48,0,2.06.3,2.06,1.36s-2.23,2.53-2.23,4.06a1.61,1.61,0,0,0,.17.64l5,10.77,3.7-8.12c-.76-1.59-1.29-2.65-1.29-2.65-.71-1.53-2.65-3.53-2.65-4.7s.53-1.36,2-1.36h9.53c1.48,0,2.06.3,2.06,1.36s-2.23,2.53-2.23,4a1.64,1.64,0,0,0,.17.7l5,10.77,4.94-10.77a.49.49,0,0,0,.06-.29c0-1.18-2.12-3.35-2.12-4.41s.53-1.36,2.06-1.36h3.88c1.47,0,2,.3,2,1.36s-1.94,3.17-2.64,4.7c0,0-7,14.19-8.3,18.78a2.81,2.81,0,0,1-2.77,1.64,2.73,2.73,0,0,1-2.76-1.7c-.71-2.65-3.24-8.3-5.36-12.71a136.34,136.34,0,0,0-5.41,12.77,3.12,3.12,0,0,1-5.53-.06C296.34,64.32,289.34,50.31,289.34,50.31Z"/></g></g></svg>