<svg xmlns="http://www.w3.org/2000/svg" viewBox="0 0 220.9 112"><g id="Capa_2" data-name="Capa 2"><g id="Capa_1-2" data-name="Capa 1"><path d="M45.7,69.39c-.61,6.64-1.08,8.45-3.25,13.5-5.08,11.85-10.34,18.45-15.43,23-3.86,3.45-8.32,4.59-9.8,5.95-.84.77-2-1.47,3.3-4.85,9.52-6,6.56-12.83,6.09-13.35-2.42-2.63-7.39-3.44-13.92-8.16C7.74,81.91,3.33,76.4,2.24,66.74c-.72-6.33,1.64-13.09,5.37-18.51,4-5.8,9.52-10.07,14.53-10.7,6.41-.79,12.64,3.07,17.18,8.69C44.86,53.07,46.37,62.18,45.7,69.39Z"/><path d="M42.59,15.7c5.75,9.52-9.16,20.06-20.46,20.06S-5.24,24.45,1.67,15.7C7.86,7.85,10.72,5.23,22,5.23S37.06,6.54,42.59,15.7Z"/><path d="M9.4,1.56,5.1,11.84a.39.39,0,0,0,.46.55c5.16-1.56,10-3,14.73-5.67l1-.6v0L9.92,1.33A.4.4,0,0,0,9.4,1.56Z"/><path d="M33.53,1.17,23.38,5.77a.4.4,0,0,0,0,.72c4.84,2.37,9.38,4.57,14.65,5.88l1.16.25h0L34.07,1.36A.4.4,0,0,0,33.53,1.17Z"/><path d="M64.52,13.32C64.52,6.26,70.93,0,83.45,0c12,0,20.31,4.61,20.31,10.73a5.73,5.73,0,0,1-5.83,5.9C88.85,16.63,90,4.1,81,4.1a4.44,4.44,0,0,0-4.32,4.68c0,9.73,28.44,16,28.44,28.16,0,7.06-6.41,13.32-18.94,13.32-11.59,0-21-5-21-10.94a5.58,5.58,0,0,1,5.83-5.69c9.07,0,7.56,12.53,17.21,12.53a4.31,4.31,0,0,0,4.25-4.47C92.53,31.47,64.52,26.14,64.52,13.32Z"/><path d="M108.36,16.13c0-2.23-2.52-3.1-2.52-4.46,0-2.09,9.29-5,11-5s2.38.79,2.38,3v8.14h3v3h-3v22c0,2.74,3,2.38,3,4.4,0,1.72-3.17,3-7,3-4.54,0-6.92-2.45-6.92-7.42v-22h-2.52v-3h2.52Z"/><path d="M122.91,33.12c0-7.49,5.69-15.26,14.33-15.26,7.92,0,15.55,6.91,15.55,16.92,0,8.21-6,15.48-14.47,15.48C130.9,50.26,122.91,43.92,122.91,33.12Zm11.16-6.62c0,10.29,3.45,20.59,5.83,20.59,1.15,0,1.73-2.09,1.73-5.47,0-10.15-3.24-20.59-5.69-20.59C134.79,21,134.07,24.12,134.07,26.5Z"/><path d="M156.32,42.84V27.29c0-2.3-2.45-3.1-2.45-4.54,0-2,9.21-4.89,10.94-4.89s2.38.72,2.38,3v9.87c.65-2.09,4.32-12.89,12.6-12.89a5.44,5.44,0,0,1,5.62,5.61,5.1,5.1,0,0,1-5.4,5.26c-2.89,0-3-1.22-5-1.22-4.4,0-7.28,9.07-7.85,10.87v4.46c0,2.31,2.52,4.32,2.52,5.84,0,1.22-.65,1.58-2.52,1.58H156.32c-1.8,0-2.45-.36-2.45-1.58C153.87,47.16,156.32,45.15,156.32,42.84Z"/><path d="M190.59,25.27c-.87-1.87-3.24-4.32-3.24-5.76s.72-1.65,2.52-1.65h11.66c1.8,0,2.45.36,2.45,1.65s-2.66,3.1-2.66,4.9a1.91,1.91,0,0,0,.21.86l6.12,13.18,6-13.18a.65.65,0,0,0,.07-.36c0-1.44-2.52-4.1-2.52-5.4s.65-1.65,2.45-1.65h4.75c1.8,0,2.52.36,2.52,1.65s-2.37,3.89-3.24,5.76c0,0-8.57,17.36-10.15,23,0,0-4.83,16-14,16a5.44,5.44,0,0,1-5.62-5.62,5.09,5.09,0,0,1,5.4-5.25c2.88,0,3,1.22,5,1.22s3.6-1.94,5-4.39a3.2,3.2,0,0,1-2.59-2C199.23,42.41,190.59,25.27,190.59,25.27Z"/><path d="M105.34,103.66a25.74,25.74,0,0,1-17.93,7.56c-12,0-24.48-9.14-24.48-25.85C62.93,72.12,71.72,61,85.54,61c11.81,0,19.59,8.28,19.59,15.05a5.73,5.73,0,0,1-6,5.9c-3.24,0-6.48-2.08-6.48-6,0-6.56-3.46-10.88-7.28-10.88-6.12,0-9.72,9.58-9.72,19.73,0,11.31,4.47,23.26,14.77,23.26,2.73,0,3.09-1.51,3.16-2.16V94.23c0-1.88-2.52-3.53-2.52-4.76,0-1.08.72-1.29,2.52-1.29h11.81c1.8,0,2.45.21,2.45,1.29,0,1.23-2.45,2.88-2.45,4.76Z"/><path d="M111,103.8V69.67c0-2.23-2.52-3.09-2.52-4.46,0-2.09,9.29-4.9,11-4.9s2.38.72,2.38,2.95V103.8c0,2.31,2.52,4.32,2.52,5.84,0,1.22-.72,1.58-2.52,1.58H111c-1.8,0-2.52-.36-2.52-1.58C108.43,108.12,111,106.11,111,103.8Z"/><path d="M125.06,94.08c0-7.49,5.69-15.26,14.33-15.26,7.92,0,15.56,6.91,15.56,16.92,0,8.21-6,15.48-14.48,15.48C133.06,111.22,125.06,104.88,125.06,94.08Zm11.17-6.62c0,10.29,3.45,20.59,5.83,20.59,1.15,0,1.73-2.09,1.73-5.47,0-10.15-3.24-20.59-5.69-20.59C137,82,136.23,85.08,136.23,87.46Z"/><path d="M157.61,86.23c-.87-1.87-3.24-4.32-3.24-5.76,0-1.29.65-1.65,2.45-1.65h11.66c1.8,0,2.52.36,2.52,1.65s-2.73,3.1-2.73,5a1.87,1.87,0,0,0,.21.79l6.12,13.18,4.54-9.94c-.94-1.94-1.59-3.24-1.59-3.24-.86-1.87-3.24-4.32-3.24-5.76,0-1.29.65-1.65,2.45-1.65h11.67c1.8,0,2.52.36,2.52,1.65s-2.74,3.1-2.74,4.9a1.8,1.8,0,0,0,.22.86l6.12,13.18,6-13.18a.65.65,0,0,0,.07-.36c0-1.44-2.59-4.1-2.59-5.4s.64-1.65,2.52-1.65h4.75c1.8,0,2.45.36,2.45,1.65,0,1.44-2.38,3.89-3.24,5.76,0,0-8.57,17.36-10.16,23a3.44,3.44,0,0,1-3.38,2,3.33,3.33,0,0,1-3.38-2.09c-.87-3.24-4-10.15-6.56-15.55-2.52,5.47-5.69,12.46-6.62,15.62a3.82,3.82,0,0,1-6.77-.07C166.18,103.37,157.61,86.23,157.61,86.23Z"/></g></g></svg>